<svg width="130" height="35" viewBox="0 0 130 35" fill="none" xmlns="http://www.w3.org/2000/svg">
<path d="M0 28.8394V6.62146H15.983V9.79714H19.182V12.9728H22.381V22.4998H19.182V25.6755H15.983V28.8512H0V28.8394ZM6.39794 25.6638H12.7959V22.4881H15.9949V12.961H12.7959V9.78537H6.39794V25.6638Z" fill="black"/>
<path d="M23.3334 28.8512V25.6738H29.6865V16.1535H26.5099V12.9762H36.0279V25.6738H42.381V28.8512H23.3334ZM29.6747 9.79882V6.62146H36.0279V9.79882H29.6747Z" fill="black"/>
<path d="M47.9609 28.8512V25.6738H44.762V6.62146H51.1599V12.9762H63.9439V16.1535H67.1429V25.6738H63.9439V28.8512H47.9609ZM51.1599 25.6738H60.745V16.1535H51.1599V25.6738Z" fill="black"/>
<path d="M70 28.8516V25.6354H85.983V22.4192H73.199V19.203H70V15.9868H73.199V12.7705H89.182V15.9868H76.3979V19.203H89.182V22.4192H92.381V25.6354H89.182V28.8516H70Z" fill="black"/>
<path d="M97.8927 35.0003V31.8246H110.416V28.6489H97.8927V25.4733H94.7618V12.7705H101.024V25.4733H110.405V12.7705H116.667V31.8128H113.536V34.9885H97.8927V35.0003Z" fill="black"/>
<path d="M120.476 12.2973V9.22297H122.863V6.14865H120.476V3.07432H122.863V0H127.625V9.22297H130V12.2973H120.476Z" fill="#33CC66"/>
</svg>
